<?xml version="1.0" standalone="no"?>
<!DOCTYPE svg PUBLIC "-//W3C//DTD SVG 20010904//EN"
 "http://www.w3.org/TR/2001/REC-SVG-20010904/DTD/svg10.dtd">
<svg version="1.0" xmlns="http://www.w3.org/2000/svg"
 width="260.000000pt" height="260.000000pt" viewBox="0 0 260.000000 260.000000"
 preserveAspectRatio="xMidYMid meet">
<metadata>
Created by potrace 1.14, written by Peter Selinger 2001-2017
</metadata>
<g transform="translate(0.000000,260.000000) scale(0.100000,-0.100000)"
fill="#000000" stroke="none">
<path d="M0 2590 c0 -5 5 -10 10 -10 6 0 10 5 10 10 0 6 -4 10 -10 10 -5 0
-10 -4 -10 -10z"/>
<path d="M2580 2590 c0 -5 5 -10 10 -10 6 0 10 5 10 10 0 6 -4 10 -10 10 -5 0
-10 -4 -10 -10z"/>
<path d="M1670 1989 c-14 -4 -47 -13 -74 -20 -58 -15 -106 -52 -106 -83 0 -12
11 -37 25 -56 32 -43 31 -68 -4 -177 -16 -48 -34 -108 -41 -133 -7 -25 -16
-56 -20 -70 -4 -14 -22 -72 -40 -130 -17 -58 -45 -148 -61 -200 -16 -52 -34
-113 -40 -135 -29 -101 -57 -161 -96 -205 -47 -52 -53 -78 -25 -103 16 -15 50
-17 276 -17 219 0 260 2 281 16 31 20 32 51 5 104 -23 45 -23 47 22 195 69
225 88 272 129 320 53 60 121 40 100 -31 -9 -31 -28 -80 -71 -189 -44 -111
-50 -137 -50 -216 0 -56 5 -82 20 -107 22 -36 103 -92 133 -92 11 0 37 -5 59
-12 31 -9 57 -9 116 1 122 20 211 83 233 165 15 57 5 88 -29 86 -64 -5 -64 -3
-23 124 17 50 44 136 60 191 51 168 38 268 -45 346 -51 47 -89 59 -190 59 -89
0 -160 -23 -213 -69 -54 -47 -57 -6 -10 131 33 99 38 191 14 238 -8 16 -35 41
-58 55 -40 23 -53 25 -148 24 -57 -1 -115 -5 -129 -10z"/>
<path d="M595 1596 c-213 -61 -365 -193 -446 -388 -26 -63 -29 -82 -29 -179 0
-116 15 -169 67 -237 31 -41 114 -97 173 -115 74 -24 214 -41 272 -33 188 24
261 46 353 106 87 57 186 164 223 242 147 306 62 539 -224 614 -89 23 -291 18
-389 -10z m228 -233 c-7 -120 -109 -430 -166 -498 -31 -38 -80 -48 -91 -19 -9
23 -7 80 3 106 5 13 14 48 21 78 20 87 76 253 104 308 14 27 39 61 57 76 29
24 33 25 53 12 17 -12 21 -23 19 -63z"/>
<path d="M0 10 c0 -5 5 -10 10 -10 6 0 10 5 10 10 0 6 -4 10 -10 10 -5 0 -10
-4 -10 -10z"/>
<path d="M2585 10 c-3 -5 -1 -10 4 -10 6 0 11 5 11 10 0 6 -2 10 -4 10 -3 0
-8 -4 -11 -10z"/>
</g>
</svg>
